<mxfile host="app.diagrams.net" modified="2023-07-24T19:00:32.270Z" agent="Mozilla/5.0 (Windows NT 10.0; Win64; x64) AppleWebKit/537.36 (KHTML, like Gecko) Chrome/115.0.0.0 Safari/537.36" etag="WG6sFPhDJDNAYXldc16Y" version="21.6.5" type="device">
  <diagram name="Página-1" id="4Pf5H9xjPo3Y850xMbx1">
    <mxGraphModel dx="656" dy="339" grid="1" gridSize="10" guides="1" tooltips="1" connect="1" arrows="1" fold="1" page="1" pageScale="1" pageWidth="827" pageHeight="1169" math="0" shadow="0">
      <root>
        <mxCell id="0" />
        <mxCell id="1" parent="0" />
        <mxCell id="WhtFZg-9zcJMoTRTod-9-1" value="Construa a modelagem que represente pessoas e seus dados, observando que:&#xa;&#xa;&#xa;- uma pessoa pode ter vários telefones e vários emails, porém, pode possuir somente uma CNH." style="text;whiteSpace=wrap;" vertex="1" parent="1">
          <mxGeometry x="20" y="10" width="560" height="80" as="geometry" />
        </mxCell>
        <mxCell id="WhtFZg-9zcJMoTRTod-9-8" style="edgeStyle=orthogonalEdgeStyle;rounded=0;orthogonalLoop=1;jettySize=auto;html=1;endArrow=none;endFill=0;" edge="1" parent="1" source="WhtFZg-9zcJMoTRTod-9-2">
          <mxGeometry relative="1" as="geometry">
            <mxPoint x="230" y="290" as="targetPoint" />
          </mxGeometry>
        </mxCell>
        <mxCell id="WhtFZg-9zcJMoTRTod-9-11" style="edgeStyle=orthogonalEdgeStyle;rounded=0;orthogonalLoop=1;jettySize=auto;html=1;entryX=0;entryY=0.5;entryDx=0;entryDy=0;endArrow=none;endFill=0;" edge="1" parent="1" target="WhtFZg-9zcJMoTRTod-9-12">
          <mxGeometry relative="1" as="geometry">
            <mxPoint x="160" y="199.69" as="sourcePoint" />
            <mxPoint x="360" y="199.69" as="targetPoint" />
          </mxGeometry>
        </mxCell>
        <mxCell id="WhtFZg-9zcJMoTRTod-9-2" value="Pessoa" style="rounded=0;whiteSpace=wrap;html=1;" vertex="1" parent="1">
          <mxGeometry x="170" y="170" width="120" height="60" as="geometry" />
        </mxCell>
        <mxCell id="WhtFZg-9zcJMoTRTod-9-4" style="edgeStyle=orthogonalEdgeStyle;rounded=0;orthogonalLoop=1;jettySize=auto;html=1;entryX=0;entryY=0.5;entryDx=0;entryDy=0;endArrow=none;endFill=0;" edge="1" parent="1" source="WhtFZg-9zcJMoTRTod-9-3" target="WhtFZg-9zcJMoTRTod-9-2">
          <mxGeometry relative="1" as="geometry" />
        </mxCell>
        <mxCell id="WhtFZg-9zcJMoTRTod-9-3" value="CNH" style="ellipse;whiteSpace=wrap;html=1;" vertex="1" parent="1">
          <mxGeometry x="70" y="180" width="60" height="40" as="geometry" />
        </mxCell>
        <mxCell id="WhtFZg-9zcJMoTRTod-9-5" value="Telefone" style="rounded=0;whiteSpace=wrap;html=1;" vertex="1" parent="1">
          <mxGeometry x="490" y="170" width="120" height="60" as="geometry" />
        </mxCell>
        <mxCell id="WhtFZg-9zcJMoTRTod-9-6" value="Email" style="rounded=0;whiteSpace=wrap;html=1;" vertex="1" parent="1">
          <mxGeometry x="310" y="350" width="120" height="60" as="geometry" />
        </mxCell>
        <mxCell id="WhtFZg-9zcJMoTRTod-9-9" value="1" style="text;html=1;strokeColor=none;fillColor=none;align=center;verticalAlign=middle;whiteSpace=wrap;rounded=0;" vertex="1" parent="1">
          <mxGeometry x="290" y="180" width="20" height="10" as="geometry" />
        </mxCell>
        <mxCell id="WhtFZg-9zcJMoTRTod-9-13" style="edgeStyle=orthogonalEdgeStyle;rounded=0;orthogonalLoop=1;jettySize=auto;html=1;entryX=0;entryY=0.5;entryDx=0;entryDy=0;endArrow=none;endFill=0;" edge="1" parent="1" source="WhtFZg-9zcJMoTRTod-9-12" target="WhtFZg-9zcJMoTRTod-9-5">
          <mxGeometry relative="1" as="geometry" />
        </mxCell>
        <mxCell id="WhtFZg-9zcJMoTRTod-9-12" value="possui" style="rhombus;whiteSpace=wrap;html=1;" vertex="1" parent="1">
          <mxGeometry x="360" y="160.00000000000006" width="80" height="80" as="geometry" />
        </mxCell>
        <mxCell id="WhtFZg-9zcJMoTRTod-9-14" value="n" style="text;html=1;strokeColor=none;fillColor=none;align=center;verticalAlign=middle;whiteSpace=wrap;rounded=0;" vertex="1" parent="1">
          <mxGeometry x="470" y="180" width="20" height="10" as="geometry" />
        </mxCell>
        <mxCell id="WhtFZg-9zcJMoTRTod-9-16" value="" style="edgeStyle=orthogonalEdgeStyle;rounded=0;orthogonalLoop=1;jettySize=auto;html=1;exitX=0.5;exitY=0;exitDx=0;exitDy=0;endArrow=none;endFill=0;" edge="1" parent="1" source="WhtFZg-9zcJMoTRTod-9-15" target="WhtFZg-9zcJMoTRTod-9-2">
          <mxGeometry relative="1" as="geometry" />
        </mxCell>
        <mxCell id="WhtFZg-9zcJMoTRTod-9-17" style="edgeStyle=orthogonalEdgeStyle;rounded=0;orthogonalLoop=1;jettySize=auto;html=1;entryX=0;entryY=0.5;entryDx=0;entryDy=0;exitX=0.5;exitY=1;exitDx=0;exitDy=0;endArrow=none;endFill=0;" edge="1" parent="1" source="WhtFZg-9zcJMoTRTod-9-15" target="WhtFZg-9zcJMoTRTod-9-6">
          <mxGeometry relative="1" as="geometry">
            <mxPoint x="220" y="360" as="sourcePoint" />
            <mxPoint x="240" y="400" as="targetPoint" />
            <Array as="points">
              <mxPoint x="230" y="380" />
              <mxPoint x="290" y="380" />
            </Array>
          </mxGeometry>
        </mxCell>
        <mxCell id="WhtFZg-9zcJMoTRTod-9-15" value="possui" style="rhombus;whiteSpace=wrap;html=1;" vertex="1" parent="1">
          <mxGeometry x="190" y="280.00000000000006" width="80" height="80" as="geometry" />
        </mxCell>
        <mxCell id="WhtFZg-9zcJMoTRTod-9-19" value="1" style="text;html=1;strokeColor=none;fillColor=none;align=center;verticalAlign=middle;whiteSpace=wrap;rounded=0;" vertex="1" parent="1">
          <mxGeometry x="230" y="240" width="20" height="10" as="geometry" />
        </mxCell>
        <mxCell id="WhtFZg-9zcJMoTRTod-9-20" value="n" style="text;html=1;strokeColor=none;fillColor=none;align=center;verticalAlign=middle;whiteSpace=wrap;rounded=0;" vertex="1" parent="1">
          <mxGeometry x="290" y="360" width="20" height="10" as="geometry" />
        </mxCell>
        <mxCell id="WhtFZg-9zcJMoTRTod-9-23" style="edgeStyle=orthogonalEdgeStyle;rounded=0;orthogonalLoop=1;jettySize=auto;html=1;entryX=1;entryY=0.5;entryDx=0;entryDy=0;endArrow=none;endFill=0;" edge="1" parent="1" source="WhtFZg-9zcJMoTRTod-9-22" target="WhtFZg-9zcJMoTRTod-9-6">
          <mxGeometry relative="1" as="geometry" />
        </mxCell>
        <mxCell id="WhtFZg-9zcJMoTRTod-9-22" value="Senha" style="ellipse;whiteSpace=wrap;html=1;" vertex="1" parent="1">
          <mxGeometry x="470" y="360" width="60" height="40" as="geometry" />
        </mxCell>
        <mxCell id="WhtFZg-9zcJMoTRTod-9-25" style="edgeStyle=orthogonalEdgeStyle;rounded=0;orthogonalLoop=1;jettySize=auto;html=1;entryX=0.583;entryY=1.042;entryDx=0;entryDy=0;entryPerimeter=0;endArrow=none;endFill=0;" edge="1" parent="1" source="WhtFZg-9zcJMoTRTod-9-24" target="WhtFZg-9zcJMoTRTod-9-5">
          <mxGeometry relative="1" as="geometry" />
        </mxCell>
        <mxCell id="WhtFZg-9zcJMoTRTod-9-24" value="numero" style="ellipse;whiteSpace=wrap;html=1;" vertex="1" parent="1">
          <mxGeometry x="530" y="260" width="60" height="40" as="geometry" />
        </mxCell>
      </root>
    </mxGraphModel>
  </diagram>
</mxfile>
